<?xml version="1.0" encoding="utf-8"?>
<!-- Generator: Adobe Illustrator 24.3.0, SVG Export Plug-In . SVG Version: 6.00 Build 0)  -->
<svg version="1.1" id="Layer_1" xmlns="http://www.w3.org/2000/svg" xmlns:xlink="http://www.w3.org/1999/xlink" x="0px" y="0px"
	 viewBox="0 0 1190.55 3190" style="enable-background:new 0 0 1190.55 3190;" xml:space="preserve" fill='white'>
<g>
	<g>
		<g>
			<g>
				<path d="M442.95,1445.81H115.02c-42.8,0-83.7,36.1-83.7,80.61v338.32c0,44.52,40.9,80.61,83.7,80.61h327.93
					c42.84,0,83.72-36.09,83.72-80.61v-338.32C526.67,1481.91,485.79,1445.81,442.95,1445.81 M442.95,1864.74H115.02v-338.32h327.93
					V1864.74z"/>
			</g>
			<g>
				<path d="M1005.93,1693.27l157.89-247.45h-100.5L946.1,1629.65c-8.43,12.79-22.54,21.17-38.59,21.17h-7.41
					c-16.04,0-30.2-8.38-38.61-21.17l-116.85-183.84H644.29l158.01,248.56l-168.57,250.98h102.13l129.34-192.75
					c8.41-12.77,22.54-21.18,38.57-21.18h1.84c15.98,0,30.13,8.4,38.59,21.18l130.05,192.75h102.31L1005.93,1693.27z"/>
			</g>
			<g>
				<path d="M244.89,984.06l-47.17,80.5h244.78v133.32H115.16V859.56h364.06l47.32-80.61H115.16c-42.78,0-83.7,36.1-83.7,80.61
					v338.32c0,44.52,40.92,80.61,83.7,80.61h327.35c42.82,0,83.74-36.09,83.74-80.61V984.06H244.89z"/>
			</g>
			<g>
				<path d="M1063.63,778.54H701.76v500.35h361.87c42.89,0,83.86-36.15,83.86-80.75v-94.53c0-44.58-26.54-80.74-69.45-80.74
					c42.91,0,69.45-36.14,69.45-80.71v-82.87C1147.49,814.69,1106.52,778.54,1063.63,778.54 M1063.63,1164.98
					c0,18.33-14.3,33.16-31.89,33.16H785.62v-133.52h246.12c17.59,0,31.89,14.86,31.89,33.15V1164.98z M1063.63,950.75
					c0,18.31-14.3,33.16-31.89,33.16H785.62V859.29h246.12c17.59,0,31.89,14.82,31.89,33.14V950.75z"/>
			</g>
		</g>
	</g>
	<g>
		<g>
			<path d="M44.01,2190.77c4.37,15.17,12.69,21.76,28.08,21.76c18.31,0,27.88-9.18,27.88-26.95c0-8.19-2.49-14.78-7.27-18.96
				c-4.58-3.8-5.61-4.2-22.89-9.18c-25.37-7.2-35.78-18.57-35.78-39.94c0-23.95,14.56-38.13,39.11-38.13
				c21.22,0,32.87,8.79,37.45,28.35l-14.16,3.59c-4.15-13.78-10.61-18.96-23.51-18.96c-14.56,0-23.09,8.98-23.09,24.35
				c0,14.57,7.29,21.96,28.09,27.96c17.07,4.98,19.97,6.19,26.01,10.78c7.9,6.19,11.85,15.97,11.85,29.35
				c0,26.35-15.19,40.72-43.48,40.72c-24.75,0-37.45-9.18-42.45-30.94L44.01,2190.77z"/>
		</g>
		<g>
			<path d="M271.54,2094.35H237v-13.18h85.09v13.18h-34.32v129.37h-16.23V2094.35z"/>
		</g>
		<g>
			<path d="M468.5,2081.16v96.83c0,12.39,1.04,18.57,4.37,23.56c4.58,7.59,11.24,10.98,21.63,10.98c12.48,0,19.56-3.59,24.14-12.57
				c2.49-4.79,3.32-10.78,3.32-21.96v-96.83h16.23v96.83c0,17.78-1.66,25.35-7.49,32.94c-7.9,10.18-18.53,14.57-35.58,14.57
				c-17.9,0-29.55-5.19-36.82-16.78c-4.58-6.98-6.04-14.57-6.04-30.74v-96.83H468.5z"/>
		</g>
		<g>
			<path d="M678.36,2081.16h39.52c31.21-0.59,46.82,15.57,46.19,47.31v47.92c0.63,31.74-14.98,47.91-46.19,47.31h-39.52V2081.16z
				 M716.42,2210.74c22.05,0.41,31.41-10.58,31.41-36.54v-43.72c0-25.76-9.36-36.74-31.41-36.33h-21.85v116.59H716.42z"/>
		</g>
		<g>
			<path d="M901.52,2081.16h16.22v142.55h-16.22V2081.16z"/>
		</g>
		<g>
			<path d="M1055.01,2128.48c0-17.37,2.91-27.74,9.99-35.73c7.9-9.18,18.71-13.39,34.32-13.39c16.65,0,28.29,5,35.99,15.57
				c5.83,7.79,8.12,17.57,8.12,33.54v47.92c0,17.37-2.92,27.74-9.99,35.74c-7.9,9.18-18.71,13.37-34.12,13.37
				c-16.85,0-28.5-4.98-36.19-15.57c-5.63-7.78-8.12-17.76-8.12-33.54V2128.48z M1127.2,2130.09c0-26.16-8.52-37.74-28.08-37.74
				c-19.36,0-27.89,11.58-27.89,37.74v44.72c0,26.15,8.53,37.72,27.89,37.72c19.56,0,28.08-11.58,28.08-37.72V2130.09z"/>
		</g>
	</g>
</g>
</svg>
